/* XPM */
static char *result[] = {
/* columns rows colors chars-per-pixel */
"64 64 5 1 ",
"  c #663E24",
". c #B07E5E",
"X c #7A5A47",
"o c #D5B292",
"O c #F3DCCE",
/* pixels */
"                                                                ",
" .............................................................. ",
" .XXXXXX.XXXXXX.XXXXXX.XXXXXX.XXXXXX.XXXXXX.XXXXXX.XXXXXX.XXXXX ",
" .oooooo.oooooo.oooooo.oooooo.oooooo.oooooo.oooooo.oooooo.ooooo ",
" .oOOOOO.oOOOOO.oOOOOO.oOOOOO.oOOOOO.oOOOOO.oOOOOO.oOOOOO.oOOOO ",
" .oOOOOO.oOOOOO.oOOOOO.oOOOOO.oOOOOO.oOOOOO.oOOOOO.oOOOOO.oOOOO ",
" .oOOOOO.oOOOOO.oOOOOO.oOOOOO.oOOOOO.oOOOOO.oOOOOO.oOOOOO.oOOOO ",
" .oOOOOO.oOOOOO.oOOOOO.oOOOOO.oOOOOO.oOOOOO.oOOOOO.oOOOOO.oOOOO ",
" .............................................................. ",
" .XXXXXX.XXXXXX.XXXXXX.XXXXXX........XXXXXX.XXXXXX.XXXXXX.XXXXX ",
" .oooooo.oooooo.oooooo.ooo....XXXXXX....ooo.oooooo.oooooo.ooooo ",
" .oOOOOO.oOOOOO.oOOOOO.o...XXXXOOOOOXXX...O.oOOOOO.oOOOOO.oOOOO ",
" .oOOOOO.oOOOOO.oOOOOO...XXXOOOOOOOOOOOXX...oOOOOO.oOOOOO.oOOOO ",
" .oOOOOO.oOOOOO.oOOOO..XXXOOOOOOOOOOOOOOOXX..OOOOO.oOOOOO.oOOOO ",
" .oOOOOO.oOOOOO.oOOO..XX.XOOOOOOOOOOOOOOOOOX..OOOO.oOOOOO.oOOOO ",
" ....................XXO.XOOOOOOOOOOOOOOOOOXX.................. ",
" .XXXXXX.XXXXXX.XX..XXOO.XOOOOOOOOOOOOOOOOOOXX..XX.XXXXXX.XXXXX ",
" .oooooo.oooooo.o..XOOOO.XOOOOOOOOOOOOOOOOOOOOX..o.oooooo.ooooo ",
" .oOOOOO.oOOOOO.o.XOOOOO.XOOOOOOOO....OOOOOOOOOX.O.oOOOOO.oOOOO ",
" .oOOOOO.oOOOOO...XOOOOO.XOOOOOO...XX..OOOOOOOOX...oOOOOO.oOOOO ",
" .oOOOOO.oOOOOO..XOOOOO..XOOOOOO.XXOOX..OOOOOOOOX..oOOOOO.oOOOO ",
" .oOOOOO.oOOOOO..XOOOOO.XXOOOOO..XOOOOX.OOOOOOOOO..oOOOOO.oOOOO ",
" ................XOOOOO.XOOOOOO.XOOOOOX..OOOOOOOO.............. ",
" .XXXXXX.XXXXXX.XOOOOOO.XOOOOOO.XOOOOOOX.OOOOOOOOX.XXXXXX.XXXXX ",
" .oooooo.oooooo.XOOOOOO..OOOOOO.XOOOOOOX.OOOOOOOOX.oooooo.ooooo ",
" .oOOOOO.oOOOOO.XOOOOOOO.OOOOO..XOOOOOOX.OOOOOOOOX.oOOOOO.oOOOO ",
" .oOOOOO.oOOOOO.XOOOOOOO..OOOO.XOOOOOOO..OOOOOOOOX.oOOOOO.oOOOO ",
" .oOOOOO.oOOOOO.XOOOOOOOX..OOO.XOOOOOO..XOOOOOOOOX.oOOOOO.oOOOO ",
" .oOOOOO.oOOOOO.XOOOOOOOOX.....XOO....XXOOOOOOOOOX.oOOOOO.oOOOO ",
" ................OOOOOOOOOXXXX....XXXXOOOOOOOOOOO.............. ",
" .XXXXXX.XXXXXX..OOOOOOOOOOOOO.XXXOOOOOOOOOOOOOOO..XXXXXX.XXXXX ",
" .oooooo.oooooo..OOOOOOOOOOOOO.XOOOOOOOOOOOOOOOOO..oooooo.ooooo ",
" .oOOOOO.oOOOOO...OOOOOOOOOOOO.XOOOOOOOOOOOOOOOO...oOOOOO.oOOOO ",
" .oOOOOO.oOOOOO.X.OOOOOOOOOOOO.XOOOOOOOOOOOOOOOO.X.oOOOOO.oOOOO ",
" .oOOOOO.oOOOOO.X..OOOOOOOOOOO.XOOOOOOOOOOOOOOO..X.oOOOOO.oOOOO ",
" .oOOOOO.oOOOOO.oX..OOOOOOOOOO.XOOOOOOOOOOOOOO..XO.oOOOOO.oOOOO ",
" .....................OOOOOOOO.XOOOOOOOOOOOO................... ",
" .XXXXXX.XXXXXX.XXXX...OOOOOOO.XOOOOOOOOOOO...XXXX.XXXXXX.XXXXX ",
" .oooooo.oooooo.ooooX..OOOOOOO.XOOOOOOOOOOO..Xoooo.oooooo.ooooo ",
" .oOOOOO.oOOOOO.oOOOOX...OOOOO.XOOOOOOOOO...XOOOOO.oOOOOO.oOOOO ",
" .oOOOOO.oOOOOO.oOOOOOXX...OOO.XOOOOOOO...XXoOOOOO.oOOOOO.oOOOO ",
" .oOOOOO.oOOOOO.oOOOOO.oXX...O.XOOOO....XXO.oOOOOO.oOOOOO.oOOOO ",
" .oOOOOO.oOOOOO.oOOOOO.oOOXXXX.......XXXOOO.oOOOOO.oOOOOO.oOOOO ",
" .............................................................. ",
" .XXXXXX.XXXXXX.XXXXXX.XXXXXX.XXXXXX.XXXXXX.XXXXXX.XXXXXX.XXXXX ",
" .oooooo.oooooo.oooooo.oooooo.oooooo.oooooo.oooooo.oooooo.ooooo ",
" .oOOOOO.oOOOOO.oOOOOO.oOOOOO.oOOOOO.oOOOOO.oOOOOO.oOOOOO.oOOOO ",
" .oOOOOO.oOOOOO.oOOOOO.oOOOOO.oOOOOO.oOOOOO.oOOOOO.oOOOOO.oOOOO ",
" .oOOOOO.oOOOOO.oOOOOO.oOOOOO.oOOOOO.oOOOOO.oOOOOO.oOOOOO.oOOOO ",
" .oOOOOO.oOOOOO.oOOOOO.oOOOOO.oOOOOO.oOOOOO.oOOOOO.oOOOOO.oOOOO ",
" .............................................................. ",
" XXXXXXXXXXX.XXXXXXXXXXXX.XXXXXXXXXXXX.XXXXXXXXXXXX.XXXXXXXXXXX ",
" OOOOOOOOOOO.OOOOOOOOOOOO.OOOOOOOOOOOO.OOOOOOOOOOOO.OOOOOOOOOOO ",
" OOOOOOOOOOO.OOOOOOOOOOOO.OOOOOOOOOOOO.OOOOOOOOOOOO.OOOOOOOOOOO ",
" OOOOOOOOOOO.OOOOOOOOOOOO.OOOOOOOOOOOO.OOOOOOOOOOOO.OOOOOOOOOOO ",
" OOOOOOOOOOO.OOOOOOOOOOOO.OOOOOOOOOOOO.OOOOOOOOOOOO.OOOOOOOOOOO ",
" OOOOOOOOOOO.OOOOOOOOOOOO.OOOOOOOOOOOO.OOOOOOOOOOOO.OOOOOOOOOOO ",
" OOOOOOOOOOO.OOOOOOOOOOOO.OOOOOOOOOOOO.OOOOOOOOOOOO.OOOOOOOOOOO ",
" OOOOOOOOOOO.OOOOOOOOOOOO.OOOOOOOOOOOO.OOOOOOOOOOOO.OOOOOOOOOOO ",
" OOOOOOOOOOO.OOOOOOOOOOOO.OOOOOOOOOOOO.OOOOOOOOOOOO.OOOOOOOOOOO ",
" OOOOOOOOOOO.OOOOOOOOOOOO.OOOOOOOOOOOO.OOOOOOOOOOOO.OOOOOOOOOOO ",
" OOOOOOOOOOO.OOOOOOOOOOOO.OOOOOOOOOOOO.OOOOOOOOOOOO.OOOOOOOOOOO ",
" OOOOOOOOOOO.OOOOOOOOOOOO.OOOOOOOOOOOO.OOOOOOOOOOOO.OOOOOOOOOOO ",
"                                                                "
};
