/* XPM */
static char *result[] = {
/* columns rows colors chars-per-pixel */
"64 64 7 1 ",
"  c #663016",
". c #D8C590",
"X c #F3F799",
"o c #F5F8A5",
"O c #F6F9B0",
"+ c #F7FABA",
"@ c #F8FBC3",
/* pixels */
"                                                                ",
" ...... ....... ....... .......  ...... ....... ....... ....... ",
" .+O++@ .+OO+O@ .++OOOO .OOOO+@  .+O++@ .+OO+O@ .++OOOO .OOOO+@ ",
" .OO++O .OO@+O@ .+OOOOO .+OOO+@  .OO++O .OO@+O@ .+OOOOO .+OOO+@ ",
" .O++OO .+O@+O+ .+OOOoo .+OO++@  .O++OO .+O@+O+ .+OOOoo .+OO++@ ",
" .OO@O+ .OOO+++ .O+OoOO .ooO++@  .OO@O+ .OOO+++ .O+OoOO .ooO++@ ",
" .+@++o .OoOO++ .O+OoOo .OOO++@  .+@++o .OoOO++ .O+OoOo .OOO++@ ",
" .+@O+o .oOOO++ .O+OoOo .oOO+++  .+@O+o .oOOO++ .O+OoOo .oOO+++ ",
" .+++oo .ooOOO@ .OOOoOO .oOO+@+  .+++oo .ooOOO@ .OOOoOO .oOO+@+ ",
" .+++Xo .OXOOO+ .+OoOoO .OO++@+  .+++Xo .OXOOO+ .+OoOoO .OO++@+ ",
" .++OXO .oo++++ .O+ooOo .OOO+@+  .++OXO .oo++++ .O+ooOo .OOO+@+ ",
" .+O+O+ .XoO+++ .++ooOo .+OO+++  .+O+O+ .XoO+++ .++ooOo .+OO+++ ",
" .+Oo++ .oOOO++ .OOoOoo .O+O+++  .+Oo++ .oOOO++ .OOoOoo .O+O+++ ",
" .O+o++ .+++O++ .+Ooooo .O+O@++  .O+o++ .+++O++ .+Ooooo .O+O@++ ",
" .+OO+O .O++O++ .O+Oooo .OOO+++  .+OO+O .O++O++ .O+Oooo .OOO+++ ",
"                                                                ",
" ...... ....... ....... .......  ...... ....... ....... ....... ",
" .+++OO .++OOo+ .OOOO+O .O+O+++  .+++OO .++OOo+ .OOOO+O .O+O+++ ",
" .++++o .OO+Oo+ .++O+OO .O+O+++  .++++o .OO+Oo+ .++O+OO .O+O+++ ",
" .+++OO .++O+oO .++O++o .OO++++  .+++OO .++O+oO .++O++o .OO++++ ",
" .+++o+ .OoOoO+ .++O+Oo .O+++++  .+++o+ .OoOoO+ .++O+Oo .O+++++ ",
" .++o++ .oOOo+O .+@O+oo .++++++  .++o++ .oOOo+O .+@O+oo .++++++ ",
" .+OO++ .+++OO@ .++OoOO .OOO+++  .+OO++ .+++OO@ .++OoOO .OOO+++ ",
" .@Oooo .OOoo+@ .@@+OOo .++O++@  .@Oooo .OOoo+@ .@@+OOo .++O++@ ",
" .+OooO .oOOO+@ .@+OOOO .++O+@@  .+OooO .oOOO+@ .@+OOOO .++O+@@ ",
" .+O+O+ .OO+O+@ .@+OO+O .+O++@+  .+O+O+ .OO+O+@ .@+OO+O .+O++@+ ",
" .OOOOo .OO+O++ .+@O++O .OOO+@+  .OOOOo .OO+O++ .+@O++O .OOO+@+ ",
" .OO++O .OOO+++ .+++++O .O+O@+@  .OO++O .OOO+++ .+++++O .O+O@+@ ",
" .++++O .OOO+@+ .+@+@+O .+O++@@  .++++O .OOO+@+ .+@+@+O .+O++@@ ",
" .++@+O .OO++@+ .+@++++ .O++@@@  .++@+O .OO++@+ .+@++++ .O++@@@ ",
" .++++O .O++@@+ .@++@++ .+@+@@@  .++++O .O++@@+ .@++@++ .+@+@@@ ",
"                                                                ",
"                                                                ",
" ...... ....... ....... .......  ...... ....... ....... ....... ",
" .+O++@ .+OO+O@ .++OOOO .OOOO+@  .+O++@ .+OO+O@ .++OOOO .OOOO+@ ",
" .OO++O .OO@+O@ .+OOOOO .+OOO+@  .OO++O .OO@+O@ .+OOOOO .+OOO+@ ",
" .O++OO .+O@+O+ .+OOOoo .+OO++@  .O++OO .+O@+O+ .+OOOoo .+OO++@ ",
" .OO@O+ .OOO+++ .O+OoOO .ooO++@  .OO@O+ .OOO+++ .O+OoOO .ooO++@ ",
" .+@++o .OoOO++ .O+OoOo .OOO++@  .+@++o .OoOO++ .O+OoOo .OOO++@ ",
" .+@O+o .oOOO++ .O+OoOo .oOO+++  .+@O+o .oOOO++ .O+OoOo .oOO+++ ",
" .+++oo .ooOOO@ .OOOoOO .oOO+@+  .+++oo .ooOOO@ .OOOoOO .oOO+@+ ",
" .+++Xo .OXOOO+ .+OoOoO .OO++@+  .+++Xo .OXOOO+ .+OoOoO .OO++@+ ",
" .++OXO .oo++++ .O+ooOo .OOO+@+  .++OXO .oo++++ .O+ooOo .OOO+@+ ",
" .+O+O+ .XoO+++ .++ooOo .+OO+++  .+O+O+ .XoO+++ .++ooOo .+OO+++ ",
" .+Oo++ .oOOO++ .OOoOoo .O+O+++  .+Oo++ .oOOO++ .OOoOoo .O+O+++ ",
" .O+o++ .+++O++ .+Ooooo .O+O@++  .O+o++ .+++O++ .+Ooooo .O+O@++ ",
" .+OO+O .O++O++ .O+Oooo .OOO+++  .+OO+O .O++O++ .O+Oooo .OOO+++ ",
"                                                                ",
" ...... ....... ....... .......  ...... ....... ....... ....... ",
" .+++OO .++OOo+ .OOOO+O .O+O+++  .+++OO .++OOo+ .OOOO+O .O+O+++ ",
" .++++o .OO+Oo+ .++O+OO .O+O+++  .++++o .OO+Oo+ .++O+OO .O+O+++ ",
" .+++OO .++O+oO .++O++o .OO++++  .+++OO .++O+oO .++O++o .OO++++ ",
" .+++o+ .OoOoO+ .++O+Oo .O+++++  .+++o+ .OoOoO+ .++O+Oo .O+++++ ",
" .++o++ .oOOo+O .+@O+oo .++++++  .++o++ .oOOo+O .+@O+oo .++++++ ",
" .+OO++ .+++OO@ .++OoOO .OOO+++  .+OO++ .+++OO@ .++OoOO .OOO+++ ",
" .@Oooo .OOoo+@ .@@+OOo .++O++@  .@Oooo .OOoo+@ .@@+OOo .++O++@ ",
" .+OooO .oOOO+@ .@+OOOO .++O+@@  .+OooO .oOOO+@ .@+OOOO .++O+@@ ",
" .+O+O+ .OO+O+@ .@+OO+O .+O++@+  .+O+O+ .OO+O+@ .@+OO+O .+O++@+ ",
" .OOOOo .OO+O++ .+@O++O .OOO+@+  .OOOOo .OO+O++ .+@O++O .OOO+@+ ",
" .OO++O .OOO+++ .+++++O .O+O@+@  .OO++O .OOO+++ .+++++O .O+O@+@ ",
" .++++O .OOO+@+ .+@+@+O .+O++@@  .++++O .OOO+@+ .+@+@+O .+O++@@ ",
" .++@+O .OO++@+ .+@++++ .O++@@@  .++@+O .OO++@+ .+@++++ .O++@@@ ",
" .++++O .O++@@+ .@++@++ .+@+@@@  .++++O .O++@@+ .@++@++ .+@+@@@ ",
"                                                                "
};
