/* XPM */
static char *result[] = {
/* columns rows colors chars-per-pixel */
"64 64 17 1 ",
"  c #3D0A02",
". c #4E090C",
"X c #600906",
"o c #663016",
"O c #634118",
"+ c #820C13",
"@ c #C81E0A",
"# c #864424",
"$ c #DA7072",
"% c #BC8C25",
"& c #D3B633",
"* c #B68A45",
"= c #BC8C48",
"- c #FA8B4F",
"; c #F1CC74",
": c #D8C590",
"> c #F3DCCE",
/* pixels */
"oooooooooooooooooooooooooooooooooooooooooooooooooooooooooooooooo",
"oooooooooooooooooooooooooooooooooooooooooooooooooooooooooooooooo",
"################################################################",
"################################################################",
"****************************************************************",
"****************************************************************",
"::::::::::::::::::::::::::: -..X+@$ ::::::::::::::::::::::::::::",
"::::::::::::::::::::::::::: -..X+@$ ::::::::::::::::::::::::::::",
"::::::::::::::::::::::::::: -..X+@$ ::::::::::::::::::::::::::::",
"::::::::::::::::::::::::::: -..X+@$ ::::::::::::::::::::::::::::",
"::::::::::::::::::::::::::: -..X+@$ ::::::::::::::::::::::::::::",
"::::::::::::::::::::::::::: -..X+@$ ::::::::::::::::::::::::::::",
"::::::::::::::::::::::::::: -..X+@$ ::::::::::::::::::::::::::::",
"::::::::::::::::::::::::::: -..X+@$ ::::::::::::::::::::::::::::",
"::::::::::::::::::::::::::: -..X+@$ ::::::::::::::::::::::::::::",
"::::::::::::::::::::::::::: -..X+@$ ::::::::::::::::::::::::::::",
"::::::::::::::::::::::::::: -..X+@$ ::::::::::::::::::::::::::::",
"::::::::::::::::::::::::::: -..X+@$ ::::::::::::::::::::::::::::",
"::::::::::::::::::::::::::: -..X+@$ ::::::::::::::::::::::::::::",
"::::::::::::::::::::::::::: -..X+@$ ::::::::::::::::::::::::::::",
"::::::::::::::::::::::::::: -..X+@$ ::::::::::::::::::::::::::::",
"::::::::::::::::::::::::::: -..X+@$ ::::::::::::::::::::::::::::",
"::::::::::::::::::::::::::: -..X+@$ ::::::::::::::::::::::::::::",
"::::::::::::::::::::::::::: -..X+@$ ::::::::::::::::::::::::::::",
"::::::::::::::::::::::::::: -..X+@$ ::::::::::::::::::::::::::::",
"::::::::::::::::::::::::::: -..X+@$ ::::::::::::::::::::::::::::",
"::::::::::::::::::::::::::: -..X+@$ ::::::::::::::::::::::::::::",
"::::::::::::::::::::::::::: -..X+@$ ::::::::::::::::::::::::::::",
"::::::::::::::::::::::::::: -..X+@$ ::::::::::::::::::::::::::::",
"::::::::::::::::::::::::::: -..X+@$ ::::::::::::::::::::::::::::",
"::::::::::::::::::::::::::: -..X+@$ ::::::::::::::::::::::::::::",
"::::::::::::::::::::::::::: -..X+@$ ::::::::::::::::::::::::::::",
"::::::::::::::::::::::::::: -..X+@$ ::::::::::::::::::::::::::::",
"::::::::::::::::::::::::::: -..X+@$ ::::::::::::::::::::::::::::",
"::::::::::::::::::::::::::: -..X+@$ ::::::::::::::::::::::::::::",
"::::::::::::::::::::::::::: -..X+@$ ::::::::::::::::::::::::::::",
"::::::::::::::::::::::::::: -..X+@$ ::::::::::::::::::::::::::::",
"::::::::::::::::::::::::::: -..X+@$ ::::::::::::::::::::::::::::",
"::::::::::::::::::::::::::: -..X+@$ ::::::::::::::::::::::::::::",
"::::::::::::::::::::::::::: -..X+@$ ::::::::::::::::::::::::::::",
"::::::::::::::::::::::::::: -..X+@$ ::::::::::::::::::::::::::::",
"::::::::::::::::::::::::::: -..X+@$ ::::::::::::::::::::::::::::",
"::::::::::::::::::::::::::: -..X+@$ ::::::::::::::::::::::::::::",
"::::::::::::::::::::::::::: -..X+@$ ::::::::::::::::::::::::::::",
"::::::::::::::::::::::::::: -..X+@$ ::::::::::::::::::::::::::::",
"::::::::::::::::::::::::::: -..X+@$ ::::::::::::::::::::::::::::",
"::::::::::::::::::::::::::: -..X+@$ ::::::::::::::::::::::::::::",
"::::::::::::::::::::::::::: -..X+@$ ::::::::::::::::::::::::::::",
"::::::::::::::::::::::::::: -..X+@$ ::::::::::::::::::::::::::::",
"::::::::::::::::::::::::::: -..X+@$ ::::::::::::::::::::::::::::",
"::::::::::::::::::::::::::: -..X+@$ ::::::::::::::::::::::::::::",
"::::::::::::::::::::::::::: -..X+@$ ::::::::::::::::::::::::::::",
"::::::::::::::::::::::::::: -..X+@$ ::::::::::::::::::::::::::::",
":::::::::::::::::::::::::: %;OO=%&>% :::::::::::::::::::::::::::",
":::::::::::::::::::::::::: %;OO=%&>% :::::::::::::::::::::::::::",
":::::::::::::::::::::::::: %;OO==&>% :::::::::::::::::::::::::::",
":::::::::::::::::::::::::: %;OO%=&>% :::::::::::::::::::::::::::",
"::::::::::::::::::::::::::  -..X+@$ ::::::::::::::::::::::::::::",
"::::::::::::::::::::::::              ::::::::::::::::::::::::::",
"::::::::::::::::::::::  --.XXXX++@@@@$  ::::::::::::::::::::::::",
"::::::::::::::::::::  --...XXXX++@@@@$$$  ::::::::::::::::::::::",
"::::::::::::::::::: --.....XXXX++@@@@$$$$$ :::::::::::::::::::::",
"::::::::::::::::::: -......XXXX++@@@@$$$$$ :::::::::::::::::::::",
"::::::::::::::::::: -......XXXX++@@@@$$$$$ :::::::::::::::::::::"
};
