/* XPM */
static char *_2d2750411ad42379251eade90067ed3qiOZpLykCMNZwDys[] = {
/* columns rows colors chars-per-pixel */
"64 64 18 1 ",
"  c gray23",
". c #3F3F3F",
"X c #434343",
"o c #464646",
"O c #484848",
"+ c gray31",
"@ c #515151",
"# c #555555",
"$ c #5A5A5A",
"% c #5D5D5D",
"& c #606060",
"* c gray40",
"= c DimGray",
"- c #6C6C6C",
"; c #717171",
": c gray46",
"> c gray47",
", c gray50",
/* pixels */
":-&@+@@@@##+O@%+++++OooX. .O++#@$@####@@@++O+++oO$oOOOO++++@+@&>",
"&$@@+++@@#@+O+#@+OOOo...XXoO+++&$#@@+++##@OO+OoXXXoO+OOO++++OO$-",
"@@++++++++@+++@+OOOoXXXXXooOOO+##@++O+@##+OO+OXXoOO++++++++OoO@&",
"#@+OO++O+++++++OOOOoXoooOOOOOO+##+OOOO+++OOOOoooOOO+++@+++OoOO+@",
"@+OoOOOOO++++OO@O+OooOOOOOoOO@#@@+OOOOO++OOoOOO++OOO+@##@+OOO+@#",
"++OO+O+O@@@++O++$#+OO%OOooooOO&-+OoOOOO+++OoXoO+OoO+@@++OOO++@@#",
"+++OOo+@@@+++++@#++++OOOooXo++#*:OoO+++@@+OOO++++OO+++@+++@#@@@@",
"++Oooo+@@+OOO+O+++++OOOOooO+@@@$-ooOO++@@+O++++@OO+++%++O+@#@@++",
"+#&&XOO+++OOO*&O@@#OOoOOOO++@@@+%OOOOO+@@++@@++++@@,*%@+++@#@++O",
"+O@&%oO+@+Oo$%OO++@&&+OOOOO++++O+OO+OOO@@@@@+++@###%#@++OO+@+O++",
"+Oo+@%@+@Ooo$+OO++O@%&OOOOOOO++OOOOOO++@@@#+O+@##@&&+@++OO@@++O+",
"OoXoO@*=@Oo++OO+@+Oo@#@OOOoOO+OoOoOOO+++@@@++@##@++%#+OOO+@++OO+",
"OoOOOO$-;O@@oO+@@OoO+@#O+OOOO+OoOOOooO+++@+++@@@+OOO@&*OO+@@+OoO",
"++++OO@%+O+oOO+@@+OO+O++@+OOOOOoOOOoooOO@#++@+++@+OoO#=;OO+++OOO",
"##$@@+O#+++O++@@@@+O++@@@OOO+OOO+OO@+oOO++@@@OO+@+oXo+$=O+@@+O++",
"####++O+++++@@@##@++#+@++OOO+OO+++O+$%#+++@@+OO++++ooo+$O+++@@@@",
"##@@++O+O++@@@@###++#$++oXOOOO+@@++O+@&&+@@@@+O++++Ooo@OO%$+++@@",
"++++OOO#++@@@@@##@+O+%#OoXoO+@##++OOOO@%+@#@+O++OOoooooO+%#+O+@+",
"OO+OOoO+##+++@###++O+#-Oooo+@#@+OO++OO+%+@@@@++OOOooXooO%$@OO+++",
"oo+OOooo+#O++@##@OOO+#*:O++##@+oXoOOOO+#+@++O+++OOOO+#%O%#+O%&+O",
"ooOOOooo+#O++@@@+OOOO@&:OO@@@+oXXo+OOO+++@+#O+OOOOOO+@$&%@++$%@O",
"oO++OXooO@++@@+O+OOooo$*&O+#$OOXooOOOOO++@+@OOOOOOOO+@$&@O%++#OO",
"O+@OOoOO+@####+oOOoooXO$XoOO#ooXXXo+O+O+O+OOOOOooO++#$#O#$&$O+OO",
"+@#+OoO++@$##@+O+OOXoX..o+OO++oXXoO+++++O+OO+OO+oo+OooOO@@###oo+",
"@#@+OOO++@@#%$Oo+OoXooXXO++O+OoX.Xo++@++++O%&@oooooOXoOOOoOO##O+",
"#@+OooO+@@+@@@@&%@OoOooo+++O+Oo..o+@+++++O+%+++OoXXooOOOooOO@&+#",
"@+OooO++#@+OOOO*++++OoOO++@%oXX.XO@#++++Oo$+++OooXooooOOOOOO@&:@",
"++ooOO+@$@+OOO#%++@#@OOO+Oo#&..XO@##@OOOoO#O++OoooOOoOOOOOOO+$=>",
"&ooO++@@@+%==@++++@@+OO+++O+&#OO@###@+OoO#&&@OoooOoooOOOOO@oO@%;",
"&oO+O+@@+#%*==*%#oO++Oo+++Oo@*&@@@@@+oooO+@&&#O++OOoO++++##@+@O@",
"oO+++@@+OO@#####&*+oooO+++++#$:#@+@@OOOO+@#@#*=+++++@+++O++++@Oo",
"o+@@+@+++++O++++#%XoooO++++@#$=,++@@+++++@#@+$-*+++@@++OoXoo+$%#",
"$@####@@@++O+++oO#oOOOO++++@+@&>:-&@+@@@@##+O@%+++++OooX. .O++$@",
"$#@@+++##@OO+OoXXXoO+OOO++++OO$-&$@@+++@@#@+O+#@+OOOo...XXoO+++&",
"#@++O+@##+OO+OXXoOO++++++++OoO@&@@++++++++@+++@+OOOoXXXXXooOOO+#",
"#+OOOO+++OOOOoooOO++++@+++OoOO+@#@+OO++O+++++++OOOOoXoooOOOOOO+#",
"@+OOOO+++OOoOOO++++++@##++OOO+@#@+OoOOOOO++++OO@O+OooOOOOOoOO@#@",
"+OoOOOO+++OoXoO+OOO+@@++OOO++@@#+++O+O+O@@@++O++$#+OO%OOooooOO&-",
":OoO+++@@+OOO++++OO+++@+++@#@@@@+++Ooo+@@@+++++@#++++OOOooXo++#*",
"-ooOO++@@+O++++@OO+++%++O+@#@@++++OoXo+@@+OOO+O+++++OOOOooO+@@@$",
"%OOOOO+@@++@@++++@@,*%@+++@#@++O+#&&XOO+++OOO*&O@@#OOoOOOO++@@@+",
"+OO+OOO@@@@@+++@###%#@++OO+@+O+++O@&%oO+@+Oo$%OO++@&&+OOOOO++++O",
"OOOOO++@@@#+O+@##@&&+@++OO@@++O++Oo+@%@+@Ooo$+OO++O@%&OOOOOOO++O",
"OoOOO+++@@@++@##@++%#+OOO+@++OO+OOXoO@*=@Oo++OO+@+Oo@#@OOOoOO+Oo",
"OOOooO+++@+++@@@+OOO@&*OO+@@+OoOOoOOoO$-;O@@oO+@@OoO+@#O+OOOO+Oo",
"OOOoooOO@#++@+++@+OoO#=;OO+++OOO++++OO@%+O+oOO+@@+OO+O++@+OOOOOo",
"+OO@+oOO++@@@OO+@+oXo+$=O+@@+O++##$@@+O#+++O++@@@@+O++@@@OOO+OOO",
"++O+$%#+++@@+OO++++ooo+$O+++@@@@####++O+++++@@@##@++#+@++OOO+OO+",
"@++O+@&&+@@@@+O++++Ooo@OO%$+++@@##@@++O+O++@@@@###++#$++oXOOOO+@",
"++OOOO@%+@#@+O++OOoooooO+%#+O+@+++++OOO#++@@@@@##@+O+%#OoXoO+@##",
"OO++OO+%+@@@@++OOOooXooO%$@OO+++OO+OOoO+##+++@###++O+#-Oooo+@#@+",
"XoO+OO+#+@++O+++OOOO+#%O%#+O%&+Ooo+OOooo+#O++@##@OOO+#*:O++##@+o",
".XOO+O+++@+#O+OOOOOO+@$&%@++$%@OooOOOooo+#O++@@@+OOOO@&:OO@#@+oX",
"XoO++++++@+@OOOOOOOO+@$&@O%++#OOoO++OXooO@++@@+O+OOooo$*&O+#$OOX",
"XXo+++O+++OOOOOooO++#$#O#$&$O+OOO+@OOoOO+@####+oOOoooXO$XoOO#ooX",
"XoO+++++O+OO+OO+ooOOooOO@@###oo++@#+OoO++@$##@+O+OoXoX..o+OO++oX",
".Xo++@++++O$&@oooooOXoOOOoOO##O+@#@+OOO++@@#%$Oo+OoXooXXO++O+Oo.",
".o+@+++++O+$+++OoXXooOOOooOO+*+@#@+OooO+@@+@@@@&%@OoOooo+++O+Oo.",
".O@#++++Oo$+++OooXooooOOOOOO@&:@@+OooO++#@+OOOO*++++OoOO++@%OoX.",
"o@##@OOOoO#O++OoooOOoOOOOOOO+$=>++ooOO+@$@+OOO#%++@#@OOO+Oo#&..X",
"@###@+OoO#&&@OoooOoooOOOOO@oO@%;&ooO++@@@+%==@++++@@+OO++OO+&#O+",
"@@@@+oooO+@&&#O++OOoO++++##@+@O@&oO+O+@@+#%*==*%#oO++Oo+++Oo@*&@",
"@+@@OOOO+@#@#*=+++++++++O++++@OooO+++@@+OO@#####&*+oooO+++++#$:#",
"++@@+++++@#@+$-*+++@@++Ooooo+#%#o+@@+@+++++O++++#%XoooO++++@#$=,"
};
