/* XPM */
static char *_8fe6d2e1e3e4cbbbd7f6ec259fe5514xLZNiiT3nBkmxHAr[] = {
/* columns rows colors chars-per-pixel */
"64 64 138 2 ",
"   c #160F06",
".  c #171007",
"X  c #1C1307",
"o  c #1C1309",
"O  c #22170A",
"+  c #25190C",
"@  c #2A1D0C",
"#  c #261B10",
"$  c #2A1E11",
"%  c #2F210F",
"&  c #33220E",
"*  c #3A260E",
"=  c #3E280E",
"-  c #2D2011",
";  c #342412",
":  c #3A2711",
">  c #372817",
",  c #3C2A14",
"<  c #3B2B19",
"1  c #452C0F",
"2  c #4A2E0F",
"3  c #4D310F",
"4  c #52330E",
"5  c #432D13",
"6  c #492F10",
"7  c #422E18",
"8  c #453017",
"9  c #4C3214",
"0  c #45311A",
"q  c #4B351B",
"w  c #4F381E",
"e  c #533513",
"r  c #583610",
"t  c #563916",
"y  c #5B3B14",
"u  c #503719",
"i  c #543A1C",
"p  c #5B3D1B",
"a  c #623E14",
"s  c #603F19",
"d  c #4B3720",
"f  c #4E3921",
"g  c #543C21",
"h  c #593F21",
"j  c #5E411E",
"k  c #664014",
"l  c #6C4416",
"z  c #64431C",
"x  c #6A461C",
"c  c #6D481D",
"v  c #704717",
"b  c #794C17",
"n  c #734B1D",
"m  c #7A4E1C",
"M  c #7C511E",
"N  c #5C4223",
"B  c #644522",
"V  c #694720",
"C  c #664825",
"Z  c #6C4A23",
"A  c #624728",
"S  c #654929",
"D  c #6B4D2A",
"F  c #734E23",
"G  c #784F21",
"H  c #714F28",
"J  c #6F512D",
"K  c #765125",
"L  c #7B5324",
"P  c #74522B",
"I  c #7B562A",
"U  c #7E592D",
"Y  c #745430",
"T  c #7C5931",
"R  c #82541D",
"E  c #88571D",
"W  c #8F5B1C",
"Q  c #905C1E",
"!  c #825623",
"~  c #855925",
"^  c #8B5B23",
"/  c #805729",
"(  c #835B2B",
")  c #8A5E2B",
"_  c #915E24",
"`  c #835E32",
"'  c #895F30",
"]  c #87602F",
"[  c #8D612D",
"{  c #936126",
"}  c #93642D",
"|  c #9A672C",
" . c #9B692E",
".. c #866136",
"X. c #866137",
"o. c #886030",
"O. c #8E6432",
"+. c #896236",
"@. c #8C6334",
"#. c #8B6436",
"$. c #8F6637",
"%. c #856138",
"&. c #886338",
"*. c #8B653A",
"=. c #8C643A",
"-. c #916532",
";. c #926632",
":. c #906737",
">. c #946835",
",. c #966A35",
"<. c #9A6A33",
"1. c #9C6B31",
"2. c #906738",
"3. c #916839",
"4. c #966C39",
"5. c #916A3D",
"6. c #946C3D",
"7. c #966E3F",
"8. c #996E3B",
"9. c #9A6E3B",
"0. c #986F3F",
"q. c #9D713D",
"w. c #A36D2E",
"e. c #A16E33",
"r. c #A47135",
"t. c #AB7433",
"y. c #A3743C",
"u. c #A87438",
"i. c #AC7839",
"p. c #B17733",
"a. c #976E40",
"s. c #9C7241",
"d. c #9E7443",
"f. c #A37540",
"g. c #A77943",
"h. c #A97A43",
"j. c #B48146",
"k. c #BE894C",
/* pixels */
"g Y ` &.` D D D I I I P Z C B i ; @ @ 5 z L ~ ~ ~ R M R y e 4 y y y a k k s l n ^ ^ x 6 6 z Z p u 7 i Z I K C +.q.f...` J < ; > ",
"Y 5.a.7...` T ` @.` P P C B 8 ; & : 9 z L ^ ^ ^ R M R y 3 2 4 r a l b E R m m R ^ M 6 & : i z F H H U O.;.D P ` =...D q > O $ 0 ",
"5.d.0.=.=.+.#.8.8.o.( o.) K i 7 7 p c G c c n n x k 2 & & 2 4 y a b W Q R l n n x 6 O X & p / } } [ [ @.I P P +.=.T N q , > 0 J ",
"7.7.*.=...` 3.8.,.( ( ,.;.Z u q z L L 8 : 9 y e 5 & @ & 1 4 y y k b R l y e y t 5 * X + 5 Z } e.<.) I K U ( o.4.4.P N N g N D &.",
"5.*.%...` ..` :.$.U Z ) H 0 q z L ( z & & 5 y z e 6 1 6 r y a k s k r 3 2 1 6 9 9 9 = 5 p L  . .( H H ( ;.,.,.4.U N S J Y I ` 5.",
"=.` ` *.` T ..$.$.D i q i i Z /  .} x * & 6 x n k e 9 y r y y e 6 6 e 6 9 9 r s x x y p c / [ [ I Z I o.4.,.` I B q S T T T ` =.",
"3.+.+.#.` ` $.q.:.B - 7 p H [ e.r.} z & * t M ! k e y r 2 1 6 2 6 t p a k k n R ~ M p p n F ~ ( K Z I O.<.K i i w i P ` T P T $.",
"f.q.2.+.` I 8.y.o.q 7 p H [ r.t.e.F 8 & & y M M k p k y e 9 9 s x m M R R ^ ^ { ~ x z L ~ ~ ~ ~ Z B I I K 0 0 i i N U ` I P ` 0.",
"y.8.:.$.I $.8.` B h B Z Z K ) ( z i ; + & p L L n n n k k s x M ^ { _ ^ _ { ^ R n c L { | L F z p j B B i ; 7 q B D U D D I $.g.",
"T ` I P ` ` ` N q N B i 7 q B j 8 8 & @ : z ^ ^ ! n z x c n L ^ { ^ ^ ^ ^ ^ n s x m { w.) 8 p V H V j j i q i C Z K I P P ` :.y.",
"h w q h w 0 0 7 0 i q 7 8 z H F Z p ; & p ~ w.{ n 6 = e n L m ! L L ! ~ ~ n p p x L } } 9 & 8 V L F B z B C I I ( ( ( I P I o.T ",
"N ; , 0 i , , ; 7 p B B K ) [ ( H p 6 p L w.t.~ 8 @ & t n L L n n G n L n z p k G ^ } F : : 9 Z H p B K ( ) [ ( U U I I U U ( P ",
"B 7 0 i N 7 q q j H ( O.e.u.[ Z p 9 i F  .p.) p @ O : p L L F c F F F F c z x F ! ) ~ c 9 7 u z Z Z K [ [ K K C N B Z Z U ' ] U ",
"C p B I / H i j I [ 1.r.i.<.i 7 7 9 V ) r.w.z : X + 8 F ~ L Z Z F K Z F x x z z x F F F z 9 p H I I / ( Z p j i i p C I ) [ ) ( ",
"K H / ;.<.Z j Z ) <.;.e.;.K , ; : i L }  .z : o X & z ( ) L V F F L L F F p : & ; e z x z i z H L L ) I i 8 i j B H I ( ) / K I ",
"K ( [ } I 8 u Z [ <.} } [ B ; + , B [  ./ u O o @ p ~ } ( Z z H L ( L F p : o O 5 p F Z i : 8 j z H I Z 8 q z H ( [ } [ I K H H ",
"L / / j : & u Z [ } [ [ / 7 + + q I e.<.z : O & i / <. .L Z Z K ) [ I z 7 O   @ q H L Z q : 8 i p F I p i j K ( } 1.} / L F Z K ",
"L L F 8 & : p L ) ( L L p @ X @ z } e.I , O @ 7 H ;.e.} H I I / ) I i , @ X O 5 F ) K V B B B B Z L F q p V L ( } } } / Z V Z Z ",
"z K F z @ 8 z F L F Z z : X O : H <./ 7 o o % p I [ [ ( ) [ ) / C ; + o O + 7 z / ) H B H I L F K / L z z x F L ~ ) / Z z Z Z F ",
"K ~ / z 5 p z p t 8 8 : @ + : i I ) z % : , i Z / K I ( ;.) B ; o . X @ , i Z I ) ) I K / ) I B / ) ( Z z z c F L F z x z z n Z ",
"F ! ~ z * 6 9 5 9 : : ; & : i V H L z p B K ) ) K P I U I i , @ X o @ 0 C ) ' ) ( ) ) I I K K K ( ) ( F c x c F F x z z k n c n ",
"F L c 8 & & * 9 9 e e e p z p p j Z K I ;.r.,.( i B P ` C q , , , , q Z ) ,.o.H I o.;.I B Z K L / ( / F z z z x c z k x n n F F ",
"x n x e + & 5 t x c n F F c 9 8 z K ( ;.r.u.) B 7 h K U I D B B g N N K ` o.I B H ( ;.C i B K Z Z F K F z t y z x x x n n c n c ",
"x x k 9 & = 9 c ~ { { ^ F z 7 p Z I ) [ <.,.U , ; i P ` ` $.$.I C q i C ` $.` i h I ( i 7 q p p p z Z Z p 6 8 y x x c n x x z s ",
"p x c p 1 5 t M { | ^ n z p p Z L ( / [ ;.@.i - 7 B ` $.8.y.q.I i 0 N T q.0.C 0 0 B C , : q V V i p x z p 9 9 y k n x c s y e t ",
"y x x r * = z ! { ^ x e 9 i z L L / / @.;.( 7 - q P #.4.q.f.3.N , q I f.j.T 0 $ , i i q i Z / I p z x n z 9 e p x n x s p t 9 9 ",
"r s e & = 9 x ^ { ^ x p t i Z I L K ) ,.[ N ; , g T $.0.f.q.D < < S q.k.7.q - ; 7 B H H I [ <.) z x F L p t p s x x y e e 9 = = ",
"9 e = 2 e k m ~ ~ ~ c p 9 9 Z L L I ) @.I q ; , g I 0.f.3.=.J 7 0 I g.g.N , > 7 B ( @.,.<.r.1.I Z F L L x s p p k e = 2 e e * @ ",
"e e 3 y l n x k z x t 6 5 i F ( I I I C B 8 - ; i T q.f.*...N 7 g T 5.Y q 0 0 B ` q.u.r.1.;.) L H K F c k k x y 9 6 * 9 y y 1 = ",
"r y a l l a 9 * * 9 8 : 5 p L [ I i , , , ; ; ; N ` s.d.7...S g g D J S N g N T 4.y.8.,.@./ I L I z e 8 e p p 9 1 6 9 y k y 2 4 ",
"y k a a e = * * 9 p s 8 i Z / I q X o + , q , w D 3.f.s...` N 0 < d A S A h S I I ` :.o.U I / ) / z & & 6 p p t y y a l v y 4 y ",
"y y r r r 9 9 y x L L p p Z L q : + + , N C C P 3.g.g.=.*.N > - < f D Y D S C C D U ` ` U U I I Z : + & 9 k n n n n m M b a 4 a ",
"4 y a k k s x n ^ { L i e z B i q 7 i Z U I S +.y.g.#.T D - # > f Y %.*.` D S S I I I Z C B B u @ o @ : z ! ^ ^ ^ ^ E E a r 4 y ",
"a l b E R m m R ^ M 6 & ; i z F H H U O.;.D P ` $...D q > O $ d Y 5.a.7...` T ` @.` P P C B 0 ; & : 9 z L ^ ^ ^ R M R y 3 2 4 y ",
"k b W Q R l n n x 6 O X & p / } } } [ @.I P P +.:.T N q , > 0 J 5.d.a.=.=.+.#.8.8.o.( o.) K i 7 7 p c G c c n n x k 2 & & 2 e y ",
"l b R l y e y t 5 * X + 5 Z } e.1.) I K U ( o.4.4.P N N g N D *.s.7.*.=...` 3.8.,.( ( ,.;.Z u 9 z L L 8 : 9 y e 5 & @ & 1 e y a ",
"k k r 3 2 1 6 9 9 9 : 5 p L  . .( H H ( ;.,.,.4.U N S P Y Y ` 5.7.*.%...` ..` :.$.U Z ) H 0 q z L ( z & & 5 y z e 6 1 6 r p s k ",
"e 2 e 6 3 9 r s x x y p c / [ [ I Z I @.4.,.` I B q S T T T ` =.=.` ` *.` T ..$.$.D i q i i Z /  .} x * & 6 x n k e e y r y y r ",
"9 t p a k k n R ^ M p p n F ~ ( K Z I ;.<.K i i w g P ` T P T =.7.+.+.#.` ` $.q.:.B - 7 p H [ e.r.} z & * t M ! k e y r 6 1 6 6 ",
"x m M R R ^ ^ { ^ x z L ~ ~ ~ ~ Z B K I K 0 0 i i N T ` I P ` q.f.q.2.+.` I 8.y.o.q 7 p H [ r.t.e.F 8 & & y M M k s k y e 9 9 p ",
"^ { _ ^ _ { ^ ! n c L { | L F z p j B B i ; 7 q B D U D D I $.g.h.8.:.$.I $.8.` B h B Z Z K ) ( z i & + & p L L n n n k k s x M ",
"_ ^ ^ ^ ^ ^ n s x n { w.) 8 p x H V j j i q i C Z K I P P T :.y.$.` I P ` ` ` N q N B i 7 q B j 8 8 & @ * x ^ ^ ! n z x c n L ^ ",
"L L ! ~ ~ n p p x L } } 9 & 8 x L F B B B C I I ( ( ( I P I o.T N w q h w 0 0 7 0 i q 7 8 z H F Z p ; & p ~  .{ n 6 = e n L m ~ ",
"n G n L n z p k G ^ } F : : 9 Z H p B K ( ) [ ( U U I I U U ( K N ; , 0 i , , ; 7 p B B K ) [ ( H p 7 p L w.t.~ 8 @ & t n L L n ",
"F F F F c z x F ~ ) ~ c 8 7 u z Z Z K [ [ K K C N B C Z U ' ] U B 7 0 i N 7 q q j H ( O.e.u.[ Z p 9 i F  .p.) p @ O : p L L F c ",
"F K Z F x x z z x F F F z 9 p H I I / ( Z p j i i p Z I ) [ ) ( C p B I / H i j I [ 1.r.i.<.i 7 7 9 V ) r.w.z : X + 9 F ~ L Z Z ",
"F L L F F p : & ; e z x z i z H L L ) I i 8 i j B H I ( ) / K I H H / ;.<.Z j Z ) <.;.e.;.K , ; : i L }  .z : o X & z ( ) L V F ",
"L ( / F p : o O 5 p F Z i : 8 j z H I Z 8 q z H ( [ } [ I K H K K ( [ } I 8 u Z [ <.} } [ B ; + , B [  ./ u O o @ p ~ } ( Z z F ",
") [ I z 7 O   @ q H L Z q : 8 i p F I p i z K ) } 1.} / L F Z K I / / j : & u Z [ } [ [ / 7 + + q I e.<.z : + & i / <. .I Z Z K ",
"( I i , @ X O 5 F ) K V B B B B Z L F q p V L ( } } } / Z V Z Z L L F 8 & : p L ) ( L L p @ X @ z } e.I 7 O @ 7 H ;.e.} H I I / ",
"Z ; + o O + 7 z / ) H B H I L F K / L z z x F L ~ ) / Z z Z Z F z K F z @ 8 z F L F Z z : X O : H <./ 7 o o % p I [ [ ( ) [ ) ( ",
"o . X @ , i Z I ) ) I K / ) I B I ) ( Z z z c F L F z x z z n Z K ~ / z 5 p z p e 8 8 : @ + : i I ) z & : , i Z / K I ( ;.) B 7 ",
"o o @ 0 C ) ' ) ( ) ) I I K K K ( ) ( F c x c F F x z z z n c n F ! ~ z * 6 9 5 9 : : ; & : i V H K B p B K ) ) K K I U I i , ; ",
", , q Z ) ,.o.H I o.;.I B Z K L / ( / F z z z x c z k x n n n n F L c 8 & & * 9 9 e e e p z p p j Z K I ;.r.,.( i C P ) C q , , ",
"g N N K ` o.I B H ( ;.C i B K Z Z F K F z t y z x x x n n c n x x n x e + & 5 t x c n F F Z 9 8 z K ( ;.r.u.) B 7 h K U I D B B ",
"C q w C ` $.` i h I ( i 7 q p p p z Z Z p 6 8 y x x c n x x z p k x k 9 & = 9 c ~ { { ^ F z 5 p Z I ) [ <.,.U , ; i P ` ` $.$.U ",
"N 0 N T q.0.S 0 0 B C , : q V V i p x x p 9 9 y k n x c s y e t p x c p 5 1 t L { | ^ n z p p Z L ( / [ ;.@.i - 7 B ` $.8.f.q.+.",
"q q I f.j.T 0 $ , i i q i Z / I i z x n z 9 e p x n x s p t 9 9 t x x r * = k ! { ^ x e 9 i z L L / / @.;.( 7 - q P #.4.q.f.3.P ",
"w S q.k.7.q - ; 7 B H H I [ <.) B x F L p t p s x x y e e 9 = = e s e & = 9 x ^ { ^ x p t i Z I L K ) ,.[ N ; , g T $.0.f.q.D g ",
"f I g.g.N , > 7 B ( @.,.<.r.1.I Z F L L x s p p k e = 2 e e * & 9 e = 2 e k m ~ ^ ~ c p 9 9 Z L L I ) @.I q ; , g I 0.f.5.=.J f ",
"N T 5.Y d 0 0 B ` q.u.r.1.;.) I H K F c k k x y 9 6 * 9 y y 1 1 r e 3 y l n x k k x t 6 5 i F / I I I C B 8 - ; i T q.f.*...N f ",
"N D J S N g N I 4.y.8.,.@./ I L L z e 8 e p p 9 1 6 9 y k y 2 r y y a l l a 9 * * 9 8 : 5 p L [ I i , , , ; ; ; N ` q.f.7...S N ",
"0 d A D A h S I I ` :.o.U I / ) / z & & 6 p p t y y s k v y 4 a a k a a e = * * 9 p s 8 i Z / I q X o + , q , w D 3.f.s...` N q ",
"< d S Y J D S C D ` o.` U U / / K 7 @ & 8 p x n n n m M b y 4 a a y y y r 3 9 r x m L p z F L p : @ + , N C N D 3.g.g.5.3.P 0 < "
};
